<svg width="16" height="16" viewBox="0 0 16 16" fill="none" xmlns="http://www.w3.org/2000/svg">
<path d="M7.33338 8.66659L7.33337 5.99992C7.33337 5.63173 7.63185 5.33325 8.00004 5.33325C8.36823 5.33325 8.66671 5.63173 8.66671 5.99992L8.66671 8.66658C8.66671 9.03478 8.36823 9.33325 8.00004 9.33325C7.63185 9.33325 7.33338 9.03478 7.33338 8.66659Z" fill="#D2092D"/>
<path d="M8.00004 11.9999C8.36823 11.9999 8.66671 11.7014 8.66671 11.3333C8.66671 10.9651 8.36823 10.6666 8.00004 10.6666C7.63185 10.6666 7.33338 10.9651 7.33338 11.3333C7.33338 11.7014 7.63185 11.9999 8.00004 11.9999Z" fill="#D2092D"/>
<path fill-rule="evenodd" clip-rule="evenodd" d="M8.00004 1.33325C8.50507 1.33325 8.96676 1.61859 9.19261 2.0703L14.5259 12.737C14.7326 13.1503 14.7105 13.6411 14.4676 14.0342C14.2246 14.4273 13.7955 14.6666 13.3334 14.6666H2.66671C2.20461 14.6666 1.77545 14.4273 1.53251 14.0342C1.28957 13.6411 1.26748 13.1503 1.47414 12.737L6.80747 2.0703C7.03333 1.61859 7.49501 1.33325 8.00004 1.33325ZM2.66671 13.3333H13.3334L8.00004 2.66659L2.66671 13.3333Z" fill="#D2092D"/>
</svg>
