<svg width="20" height="20" viewBox="0 0 20 20" fill="none" xmlns="http://www.w3.org/2000/svg">
<path fill-rule="evenodd" clip-rule="evenodd" d="M12.0481 13.2267C11.0908 13.8226 9.9606 14.1667 8.75 14.1667C5.29822 14.1667 2.5 11.3685 2.5 7.91675C2.5 4.46497 5.29822 1.66675 8.75 1.66675C12.2018 1.66675 15 4.46497 15 7.91675C15 9.55483 14.3698 11.0457 13.3387 12.1602L18.0893 16.9108C18.4147 17.2363 18.4147 17.7639 18.0893 18.0893C17.7638 18.4148 17.2362 18.4148 16.9107 18.0893L12.0481 13.2267ZM13.3333 7.91675C13.3333 10.4481 11.2813 12.5001 8.75 12.5001C6.21869 12.5001 4.16667 10.4481 4.16667 7.91675C4.16667 5.38544 6.21869 3.33341 8.75 3.33341C11.2813 3.33341 13.3333 5.38544 13.3333 7.91675Z" fill="white"/>
</svg>
