<svg width="20" height="21" viewBox="0 0 20 21" fill="none" xmlns="http://www.w3.org/2000/svg">
<path d="M13.5355 15.2139C13.861 15.5394 14.3886 15.5394 14.714 15.2139C15.0395 14.8885 15.0395 14.3608 14.714 14.0354L11.1785 10.4999L14.714 6.96435C15.0395 6.63892 15.0395 6.11128 14.714 5.78584C14.3886 5.46041 13.861 5.46041 13.5355 5.78584L10 9.32137L6.46446 5.78583C6.13902 5.46039 5.61139 5.46039 5.28595 5.78583C4.96051 6.11126 4.96051 6.6389 5.28595 6.96434L8.82149 10.4999L5.28595 14.0354C4.96051 14.3609 4.96051 14.8885 5.28595 15.2139C5.61138 15.5394 6.13902 15.5394 6.46446 15.2139L10 11.6784L13.5355 15.2139Z" fill="#0D1119"/>
</svg>
