<svg width="16" height="16" viewBox="0 0 16 16" fill="none" xmlns="http://www.w3.org/2000/svg">
<path d="M7.33325 8.66683L7.33325 6.00016C7.33325 5.63197 7.63173 5.3335 7.99992 5.3335C8.36811 5.3335 8.66658 5.63197 8.66658 6.00016L8.66659 8.66683C8.66659 9.03502 8.36811 9.3335 7.99992 9.3335C7.63173 9.3335 7.33325 9.03502 7.33325 8.66683Z" fill="#D2092D"/>
<path d="M7.99992 12.0002C8.36811 12.0002 8.66659 11.7017 8.66659 11.3335C8.66659 10.9653 8.36811 10.6668 7.99992 10.6668C7.63173 10.6668 7.33325 10.9653 7.33325 11.3335C7.33325 11.7017 7.63173 12.0002 7.99992 12.0002Z" fill="#D2092D"/>
<path fill-rule="evenodd" clip-rule="evenodd" d="M7.99992 1.3335C8.50495 1.3335 8.96663 1.61883 9.19249 2.07054L14.5258 12.7372C14.7325 13.1505 14.7104 13.6414 14.4675 14.0345C14.2245 14.4276 13.7954 14.6668 13.3333 14.6668H2.66659C2.20448 14.6668 1.77533 14.4276 1.53239 14.0345C1.28944 13.6414 1.26736 13.1505 1.47402 12.7372L6.80735 2.07054C7.03321 1.61883 7.49489 1.3335 7.99992 1.3335ZM2.66659 13.3335H13.3333L7.99992 2.66683L2.66659 13.3335Z" fill="#D2092D"/>
</svg>
