<svg width="32" height="33" viewBox="0 0 32 33" fill="none" xmlns="http://www.w3.org/2000/svg">
<path d="M22.3639 4.47929L28.0208 10.1362L28.7279 9.42904C29.8995 8.25748 29.8995 6.35798 28.7279 5.18641L27.3137 3.77223C26.1421 2.60066 24.2426 2.60066 23.0711 3.77223L22.3639 4.47929ZM27.6066 8.30779L24.1923 4.89341C23.949 4.65016 24.0176 4.23804 24.3278 4.08941C25.0716 3.73298 25.9901 3.86291 26.6065 4.47929L28.0207 5.89348C28.6371 6.50985 28.767 7.42841 28.4106 8.17223C28.262 8.48248 27.8498 8.55098 27.6066 8.30779Z" fill="#463C4B"/>
<path d="M3.97917 22.864L9.63604 28.5209L8.92892 29.228C7.75735 30.3996 5.85785 30.3996 4.68629 29.228L3.2721 27.8138C2.10054 26.6423 2.10054 24.7428 3.2721 23.5712L3.97917 22.864ZM7.80767 28.1068L4.39329 24.6924C4.15004 24.4491 3.73792 24.5177 3.58929 24.8279C3.23285 25.5717 3.36279 26.4903 3.97917 27.1066L5.39335 28.5208C6.00973 29.1372 6.92829 29.2671 7.6721 28.9107C7.98235 28.7621 8.05085 28.35 7.80767 28.1068Z" fill="#463C4B"/>
<path d="M16 30.5C23.732 30.5 30 24.232 30 16.5C30 8.76801 23.732 2.5 16 2.5C8.26801 2.5 2 8.76801 2 16.5C2 24.232 8.26801 30.5 16 30.5Z" fill="#555A6E"/>
<path d="M2.5 17C2.22387 17 2 16.7761 2 16.5C2 12.7604 3.45625 9.24475 6.1005 6.6005C8.74475 3.95625 12.2604 2.5 16 2.5C16.2761 2.5 16.5 2.72387 16.5 3C16.5 3.27613 16.2761 3.5 16 3.5C8.83181 3.5 3 9.33181 3 16.5C3 16.7761 2.77613 17 2.5 17Z" fill="#6E788C"/>
<path d="M16 28.5C22.6274 28.5 28 23.1274 28 16.5C28 9.87258 22.6274 4.5 16 4.5C9.37258 4.5 4 9.87258 4 16.5C4 23.1274 9.37258 28.5 16 28.5Z" fill="#463C4B"/>
<path d="M18.6667 22.3333C18.9429 22.3333 19.1667 22.1094 19.1667 21.8333C19.1667 21.5571 18.9429 21.3333 18.6667 21.3333C18.3906 21.3333 18.1667 21.5571 18.1667 21.8333C18.1667 22.1094 18.3906 22.3333 18.6667 22.3333Z" fill="#FFBE28"/>
<path d="M22.8333 17.8333C23.1094 17.8333 23.3333 17.6094 23.3333 17.3333C23.3333 17.0571 23.1094 16.8333 22.8333 16.8333C22.5571 16.8333 22.3333 17.0571 22.3333 17.3333C22.3333 17.6094 22.5571 17.8333 22.8333 17.8333Z" fill="#FFBE28"/>
<path d="M23.3333 22.5C23.6094 22.5 23.8333 22.2761 23.8333 22C23.8333 21.7239 23.6094 21.5 23.3333 21.5C23.0571 21.5 22.8333 21.7239 22.8333 22C22.8333 22.2761 23.0571 22.5 23.3333 22.5Z" fill="#FFBE28"/>
<path d="M27.1199 16.9855C27.3381 16.9318 27.5 16.7348 27.5 16.5C27.5 16.2652 27.3381 16.0682 27.1199 16.0145C27.3326 15.942 27.4767 15.7316 27.4562 15.4977C27.4358 15.2638 27.2573 15.0816 27.0352 15.0472C27.2409 14.9564 27.3661 14.7343 27.3253 14.5031C27.2846 14.2718 27.0909 14.1059 26.8666 14.0909C27.0636 13.9826 27.1689 13.7504 27.1082 13.5236C27.0474 13.2967 26.8401 13.1484 26.6153 13.153C26.8021 13.0279 26.8868 12.7874 26.8065 12.5667C26.7262 12.3461 26.5067 12.2164 26.2833 12.2406C26.4584 12.0996 26.5219 11.8527 26.4226 11.6399C26.3234 11.4271 26.0934 11.3169 25.8729 11.3605C26.0351 11.2049 26.0768 10.9533 25.9594 10.7499C25.8419 10.5466 25.6033 10.4569 25.3874 10.5196C25.5354 10.3504 25.5551 10.0962 25.4204 9.90381C25.2857 9.71144 25.0401 9.64294 24.8305 9.72412C24.9632 9.54269 24.9606 9.28775 24.8096 9.10787C24.6587 8.928 24.4081 8.88119 24.2064 8.98031C24.3228 8.788 24.2979 8.53425 24.1319 8.36819C23.9658 8.20212 23.7121 8.17731 23.5198 8.29369C23.6189 8.092 23.5721 7.84137 23.3922 7.69044C23.2123 7.5395 22.9573 7.53687 22.7759 7.66956C22.8571 7.46 22.7886 7.21438 22.5963 7.07969C22.4039 6.945 22.1497 6.96463 21.9805 7.11263C22.0431 6.89675 21.9535 6.65806 21.7501 6.54069C21.5468 6.42325 21.2952 6.465 21.1396 6.62712C21.1832 6.40662 21.0731 6.17662 20.8603 6.07744C20.6474 5.97819 20.4005 6.04169 20.2596 6.21681C20.2838 5.99338 20.154 5.77387 19.9334 5.69356C19.7127 5.61325 19.4722 5.698 19.3471 5.88475C19.3517 5.66006 19.2034 5.45269 18.9766 5.39187C18.7498 5.33112 18.5176 5.4365 18.4092 5.63344C18.3942 5.40919 18.2283 5.2155 17.9971 5.17475C17.7658 5.134 17.5437 5.25919 17.4529 5.46481C17.4184 5.24275 17.2363 5.06425 17.0024 5.04381C16.7685 5.02331 16.5582 5.16744 16.4856 5.38019C16.4318 5.16188 16.2348 5 16 5C15.7652 5 15.5682 5.16188 15.5145 5.38013C15.442 5.16738 15.2316 5.02325 14.9977 5.04375C14.7638 5.06419 14.5816 5.24269 14.5472 5.46475C14.4564 5.25912 14.2343 5.13394 14.0031 5.17469C13.7718 5.21544 13.6059 5.40906 13.5909 5.63338C13.4826 5.43644 13.2504 5.33106 13.0236 5.39181C12.7968 5.45262 12.6484 5.65994 12.653 5.88469C12.5279 5.69794 12.2874 5.61319 12.0667 5.6935C11.8461 5.77381 11.7164 5.99331 11.7406 6.21675C11.5996 6.04163 11.3527 5.97812 11.1399 6.07737C10.9271 6.17662 10.8169 6.40662 10.8605 6.62706C10.7049 6.46494 10.4533 6.42319 10.25 6.54063C10.0466 6.658 9.957 6.89675 10.0196 7.11256C9.85044 6.96456 9.59625 6.94494 9.40388 7.07963C9.2115 7.21431 9.143 7.45994 9.22419 7.6695C9.04275 7.53681 8.78781 7.53944 8.60794 7.69037C8.42806 7.84131 8.38125 8.09194 8.48038 8.29362C8.28806 8.17725 8.03431 8.20206 7.86825 8.36812C7.70219 8.53419 7.67737 8.78794 7.79375 8.98025C7.59206 8.88113 7.34144 8.92794 7.1905 9.10781C7.03956 9.28769 7.03694 9.54269 7.16962 9.72406C6.96006 9.64288 6.71444 9.71138 6.57975 9.90375C6.44506 10.0961 6.46469 10.3503 6.61269 10.5195C6.39681 10.4569 6.15813 10.5465 6.04075 10.7499C5.92331 10.9532 5.96506 11.2048 6.12719 11.3604C5.90669 11.3169 5.67669 11.4269 5.5775 11.6398C5.47825 11.8526 5.54175 12.0996 5.71688 12.2405C5.49344 12.2163 5.27394 12.346 5.19362 12.5667C5.11331 12.7874 5.19806 13.0278 5.38481 13.1529C5.16012 13.1483 4.95275 13.2967 4.89194 13.5235C4.83113 13.7503 4.93656 13.9825 5.1335 14.0909C4.90925 14.1059 4.71562 14.2718 4.67481 14.503C4.63406 14.7343 4.75925 14.9563 4.96488 15.0471C4.74275 15.0816 4.56431 15.2638 4.54388 15.4976C4.52344 15.7316 4.6675 15.9419 4.88025 16.0144C4.66187 16.0682 4.5 16.2652 4.5 16.5C4.5 16.7348 4.66188 16.9318 4.88013 16.9855C4.66738 17.058 4.52331 17.2684 4.54375 17.5023C4.56419 17.7362 4.74262 17.9184 4.96475 17.9528C4.75912 18.0436 4.63394 18.2657 4.67469 18.4969C4.71544 18.7282 4.90913 18.8941 5.13338 18.9091C4.93644 19.0174 4.83106 19.2496 4.89187 19.4764C4.95262 19.7032 5.16 19.8516 5.38475 19.8469C5.19806 19.9721 5.11325 20.2125 5.19356 20.4332C5.27387 20.6539 5.49338 20.7836 5.71681 20.7594C5.54169 20.9003 5.47825 21.1472 5.5775 21.3601C5.67675 21.5729 5.90669 21.683 6.12719 21.6394C5.965 21.7951 5.92331 22.0466 6.04075 22.25C6.15819 22.4534 6.39688 22.543 6.61269 22.4804C6.46469 22.6496 6.44506 22.9037 6.57975 23.0961C6.71444 23.2885 6.96006 23.357 7.16962 23.2758C7.03694 23.4573 7.03956 23.7122 7.1905 23.8921C7.34144 24.0719 7.59206 24.1187 7.79375 24.0196C7.67737 24.2119 7.70219 24.4657 7.86825 24.6318C8.03431 24.7978 8.28806 24.8226 8.48038 24.7062C8.38125 24.9079 8.42806 25.1586 8.60794 25.3096C8.78781 25.4605 9.04281 25.4631 9.22419 25.3304C9.143 25.54 9.2115 25.7856 9.40388 25.9203C9.59625 26.055 9.85044 26.0354 10.0196 25.8874C9.957 26.1033 10.0466 26.3419 10.25 26.4593C10.4534 26.5767 10.7049 26.535 10.8605 26.3729C10.8169 26.5934 10.9271 26.8234 11.1399 26.9226C11.3527 27.0218 11.5996 26.9583 11.7406 26.7832C11.7164 27.0066 11.8461 27.2261 12.0667 27.3064C12.2874 27.3868 12.5279 27.302 12.653 27.1152C12.6484 27.3399 12.7968 27.5473 13.0236 27.6081C13.2504 27.6689 13.4826 27.5635 13.5909 27.3666C13.6059 27.5908 13.7718 27.7845 14.0031 27.8253C14.2343 27.866 14.4564 27.7408 14.5472 27.5352C14.5817 27.7573 14.7638 27.9358 14.9977 27.9562C15.2316 27.9766 15.4419 27.8326 15.5145 27.6198C15.5682 27.8381 15.7652 28 16 28C16.2348 28 16.4318 27.8381 16.4855 27.6199C16.558 27.8326 16.7684 27.9767 17.0023 27.9562C17.2362 27.9358 17.4184 27.7573 17.4528 27.5352C17.5436 27.7409 17.7657 27.8661 17.9969 27.8253C18.2282 27.7846 18.3941 27.5909 18.4091 27.3666C18.5174 27.5636 18.7496 27.6689 18.9764 27.6082C19.2032 27.5474 19.3516 27.3401 19.347 27.1153C19.4721 27.3021 19.7126 27.3868 19.9333 27.3065C20.1539 27.2262 20.2836 27.0067 20.2594 26.7833C20.4004 26.9584 20.6473 27.0219 20.8601 26.9226C21.0729 26.8234 21.1831 26.5934 21.1395 26.3729C21.2951 26.5351 21.5467 26.5768 21.75 26.4594C21.9534 26.342 22.043 26.1033 21.9804 25.8874C22.1496 26.0354 22.4037 26.0551 22.5961 25.9204C22.7885 25.7857 22.857 25.5401 22.7758 25.3305C22.9573 25.4632 23.2122 25.4606 23.3921 25.3096C23.5719 25.1587 23.6187 24.9081 23.5196 24.7063C23.7119 24.8227 23.9657 24.7979 24.1318 24.6318C24.2978 24.4657 24.3226 24.212 24.2062 24.0197C24.4079 24.1188 24.6586 24.072 24.8095 23.8921C24.9604 23.7122 24.9631 23.4573 24.8304 23.2759C25.0399 23.3571 25.2856 23.2886 25.4202 23.0962C25.5549 22.9038 25.5353 22.6496 25.3873 22.4804C25.6032 22.5431 25.8419 22.4534 25.9592 22.2501C26.0767 22.0467 26.0349 21.7952 25.8728 21.6395C26.0933 21.6831 26.3233 21.573 26.4225 21.3601C26.5218 21.1473 26.4583 20.9004 26.2832 20.7594C26.5066 20.7836 26.7261 20.6539 26.8064 20.4333C26.8868 20.2126 26.802 19.9721 26.6152 19.847C26.8399 19.8516 27.0473 19.7032 27.1081 19.4764C27.1689 19.2496 27.0635 19.0174 26.8666 18.9091C27.0909 18.8941 27.2845 18.7282 27.3253 18.497C27.3661 18.2657 27.2409 18.0436 27.0352 17.9529C27.2574 17.9184 27.4358 17.7362 27.4562 17.5024C27.4767 17.2684 27.3326 17.058 27.1199 16.9855Z" fill="#FAA019"/>
<path d="M14.0801 5.66724C9.54386 6.46574 5.96586 10.0437 5.16736 14.58C5.89292 17.9633 8.89998 20.4999 12.5 20.4999C16.6422 20.4999 20 17.142 20 12.9999C20 9.39986 17.4634 6.3928 14.0801 5.66724Z" fill="#FFBE28"/>
<path d="M16.5 12.5C16.7761 12.5 17 12.2761 17 12C17 11.7239 16.7761 11.5 16.5 11.5C16.2239 11.5 16 11.7239 16 12C16 12.2761 16.2239 12.5 16.5 12.5Z" fill="#FAA019"/>
<path d="M11.8333 12.1667C12.1094 12.1667 12.3333 11.9429 12.3333 11.6667C12.3333 11.3906 12.1094 11.1667 11.8333 11.1667C11.5571 11.1667 11.3333 11.3906 11.3333 11.6667C11.3333 11.9429 11.5571 12.1667 11.8333 12.1667Z" fill="#FAA019"/>
<path d="M10 16.1667C10.2761 16.1667 10.5 15.9429 10.5 15.6667C10.5 15.3906 10.2761 15.1667 10 15.1667C9.72386 15.1667 9.5 15.3906 9.5 15.6667C9.5 15.9429 9.72386 16.1667 10 16.1667Z" fill="#FAA019"/>
<path d="M7.33325 19C7.60939 19 7.83325 18.7761 7.83325 18.5C7.83325 18.2239 7.60939 18 7.33325 18C7.05711 18 6.83325 18.2239 6.83325 18.5C6.83325 18.7761 7.05711 19 7.33325 19Z" fill="#FAA019"/>
<path d="M16.1667 20C16.4429 20 16.6667 19.7761 16.6667 19.5C16.6667 19.2239 16.4429 19 16.1667 19C15.8906 19 15.6667 19.2239 15.6667 19.5C15.6667 19.7761 15.8906 20 16.1667 20Z" fill="#FAA019"/>
<path d="M15.3333 14.1667C15.6094 14.1667 15.8333 13.9429 15.8333 13.6667C15.8333 13.3906 15.6094 13.1667 15.3333 13.1667C15.0571 13.1667 14.8333 13.3906 14.8333 13.6667C14.8333 13.9429 15.0571 14.1667 15.3333 14.1667Z" fill="#FAA019"/>
<path d="M21.6667 23.3333C21.9429 23.3333 22.1667 23.1094 22.1667 22.8333C22.1667 22.5571 21.9429 22.3333 21.6667 22.3333C21.3906 22.3333 21.1667 22.5571 21.1667 22.8333C21.1667 23.1094 21.3906 23.3333 21.6667 23.3333Z" fill="#F04B37"/>
<path d="M8.66675 11.1667C8.94289 11.1667 9.16675 10.9429 9.16675 10.6667C9.16675 10.3906 8.94289 10.1667 8.66675 10.1667C8.39061 10.1667 8.16675 10.3906 8.16675 10.6667C8.16675 10.9429 8.39061 11.1667 8.66675 11.1667Z" fill="#F04B37"/>
<path d="M18.1667 18.5C18.4429 18.5 18.6667 18.2761 18.6667 18C18.6667 17.7239 18.4429 17.5 18.1667 17.5C17.8906 17.5 17.6667 17.7239 17.6667 18C17.6667 18.2761 17.8906 18.5 18.1667 18.5Z" fill="#F04B37"/>
<path d="M25.1667 13.3333C25.4429 13.3333 25.6667 13.1094 25.6667 12.8333C25.6667 12.5571 25.4429 12.3333 25.1667 12.3333C24.8906 12.3333 24.6667 12.5571 24.6667 12.8333C24.6667 13.1094 24.8906 13.3333 25.1667 13.3333Z" fill="#F04B37"/>
<path d="M13.5 15.6667C13.7761 15.6667 14 15.4429 14 15.1667C14 14.8906 13.7761 14.6667 13.5 14.6667C13.2239 14.6667 13 14.8906 13 15.1667C13 15.4429 13.2239 15.6667 13.5 15.6667Z" fill="#5FAA46"/>
<path d="M7.83325 13.5C8.10939 13.5 8.33325 13.2761 8.33325 13C8.33325 12.7239 8.10939 12.5 7.83325 12.5C7.55711 12.5 7.33325 12.7239 7.33325 13C7.33325 13.2761 7.55711 13.5 7.83325 13.5Z" fill="#5FAA46"/>
<path d="M13.5 20.5C13.7761 20.5 14 20.2761 14 20C14 19.7239 13.7761 19.5 13.5 19.5C13.2239 19.5 13 19.7239 13 20C13 20.2761 13.2239 20.5 13.5 20.5Z" fill="#5FAA46"/>
<path d="M24.3333 20.5C24.6094 20.5 24.8333 20.2761 24.8333 20C24.8333 19.7239 24.6094 19.5 24.3333 19.5C24.0571 19.5 23.8333 19.7239 23.8333 20C23.8333 20.2761 24.0571 20.5 24.3333 20.5Z" fill="#5FAA46"/>
<path d="M15.6667 27.1667C15.9429 27.1667 16.1667 26.9429 16.1667 26.6667C16.1667 26.3906 15.9429 26.1667 15.6667 26.1667C15.3906 26.1667 15.1667 26.3906 15.1667 26.6667C15.1667 26.9429 15.3906 27.1667 15.6667 27.1667Z" fill="#5FAA46"/>
<path d="M16.5 6.83325C16.7761 6.83325 17 6.60939 17 6.33325C17 6.05711 16.7761 5.83325 16.5 5.83325C16.2239 5.83325 16 6.05711 16 6.33325C16 6.60939 16.2239 6.83325 16.5 6.83325Z" fill="#5FAA46"/>
<path d="M6.83325 20.5C7.10939 20.5 7.33325 20.2761 7.33325 20C7.33325 19.7239 7.10939 19.5 6.83325 19.5C6.55711 19.5 6.33325 19.7239 6.33325 20C6.33325 20.2761 6.55711 20.5 6.83325 20.5Z" fill="#F04B37"/>
<path d="M20 14.1667C20.2761 14.1667 20.5 13.9429 20.5 13.6667C20.5 13.3906 20.2761 13.1667 20 13.1667C19.7239 13.1667 19.5 13.3906 19.5 13.6667C19.5 13.9429 19.7239 14.1667 20 14.1667Z" fill="#FAA019"/>
<path d="M18.1667 8.83325C18.4429 8.83325 18.6667 8.60939 18.6667 8.33325C18.6667 8.05711 18.4429 7.83325 18.1667 7.83325C17.8906 7.83325 17.6667 8.05711 17.6667 8.33325C17.6667 8.60939 17.8906 8.83325 18.1667 8.83325Z" fill="#FAA019"/>
<path d="M19.5 11.3333C19.7761 11.3333 20 11.1094 20 10.8333C20 10.5571 19.7761 10.3333 19.5 10.3333C19.2239 10.3333 19 10.5571 19 10.8333C19 11.1094 19.2239 11.3333 19.5 11.3333Z" fill="#FAA019"/>
<path d="M12.25 9.25C12.186 9.25 12.1221 9.22556 12.0732 9.17681C11.9756 9.07912 11.9756 8.92087 12.0732 8.82325L12.1156 8.78088C12.458 8.43856 12.9131 8.25 13.3972 8.25H14.5C14.6381 8.25 14.75 8.36194 14.75 8.5C14.75 8.63806 14.6381 8.75 14.5 8.75H13.3972C13.0467 8.75 12.717 8.88656 12.4692 9.13444L12.4268 9.17681C12.378 9.22556 12.314 9.25 12.25 9.25Z" fill="#E1322D"/>
<path d="M13 10C12.936 10 12.8721 9.97556 12.8232 9.92681C12.7256 9.82912 12.7256 9.67087 12.8232 9.57325L12.8656 9.53088C13.208 9.18856 13.6631 9 14.1472 9H15.25C15.3881 9 15.5 9.11194 15.5 9.25C15.5 9.38806 15.3881 9.5 15.25 9.5H14.1472C13.7967 9.5 13.467 9.63656 13.2192 9.88444L13.1768 9.92681C13.128 9.97556 13.064 10 13 10Z" fill="#E1322D"/>
<path d="M19.5 7.5C21.9854 7.5 24 9.51463 24 12C24 14.4854 21.9854 16.5 19.5 16.5V15.5C20.6046 15.5 21.5 14.6046 21.5 13.5C21.5 12.3954 20.6046 11.5 19.5 11.5V7.5Z" fill="#E1322D"/>
<path d="M19.5 7.5H12.25C12.1119 7.5 12 7.61194 12 7.75C12 7.88806 12.1119 8 12.25 8H12.5494C13.0777 8 13.5509 8.33144 13.7264 8.82969C14.2745 10.3852 15.757 11.5 17.5 11.5H19.5C20.6046 11.5 21.5 10.6046 21.5 9.5C21.5 8.39544 20.6046 7.5 19.5 7.5Z" fill="#F04B37"/>
<path d="M18 14.5H18.5C19.0523 14.5 19.5 14.9477 19.5 15.5H18C17.7239 15.5 17.5 15.2761 17.5 15C17.5 14.7239 17.7239 14.5 18 14.5Z" fill="#E1322D"/>
<path d="M18 16.5H19.5V15.5H18C17.7239 15.5 17.5 15.7239 17.5 16C17.5 16.2761 17.7239 16.5 18 16.5Z" fill="#E1322D"/>
<path d="M19.25 8H12.25C12.1119 8 12 7.88806 12 7.75C12 7.61194 12.1119 7.5 12.25 7.5H19.25C19.3881 7.5 19.5 7.61194 19.5 7.75C19.5 7.88806 19.3881 8 19.25 8Z" fill="#F5826E"/>
<path d="M15.5 8.5C15.7761 8.5 16 8.27614 16 8C16 7.72386 15.7761 7.5 15.5 7.5C15.2239 7.5 15 7.72386 15 8C15 8.27614 15.2239 8.5 15.5 8.5Z" fill="#463C4B"/>
<path d="M18.6028 24.75H17.5C17.3619 24.75 17.25 24.6381 17.25 24.5C17.25 24.362 17.3619 24.25 17.5 24.25H18.6028C18.9534 24.25 19.283 24.1135 19.5309 23.8656L19.5732 23.8232C19.6709 23.7256 19.8292 23.7256 19.9268 23.8232C20.0244 23.9209 20.0244 24.0792 19.9268 24.1768L19.8844 24.2192C19.5421 24.5615 19.0869 24.75 18.6028 24.75Z" fill="#E1322D"/>
<path d="M17.8528 24H16.75C16.6119 24 16.5 23.8881 16.5 23.75C16.5 23.612 16.6119 23.5 16.75 23.5H17.8528C18.2034 23.5 18.533 23.3635 18.7809 23.1156L18.8232 23.0732C18.9209 22.9756 19.0792 22.9756 19.1768 23.0732C19.2744 23.1709 19.2744 23.3292 19.1768 23.4268L19.1344 23.4692C18.7921 23.8115 18.3369 24 17.8528 24Z" fill="#E1322D"/>
<path d="M12.5 25.5C10.0146 25.5 8 23.4854 8 21C8 18.5146 10.0146 16.5 12.5 16.5V17.5C11.3954 17.5 10.5 18.3954 10.5 19.5C10.5 20.6046 11.3954 21.5 12.5 21.5V25.5Z" fill="#E1322D"/>
<path d="M12.5 25.5H19.75C19.8881 25.5 20 25.3881 20 25.25C20 25.1119 19.8881 25 19.75 25H19.4506C18.9223 25 18.4491 24.6686 18.2736 24.1703C17.7255 22.6148 16.243 21.5 14.5 21.5H12.5C11.3954 21.5 10.5 22.3954 10.5 23.5C10.5 24.6046 11.3954 25.5 12.5 25.5Z" fill="#F04B37"/>
<path d="M14 18.5H13.5C12.9477 18.5 12.5 18.0523 12.5 17.5H14C14.2761 17.5 14.5 17.7239 14.5 18C14.5 18.2761 14.2761 18.5 14 18.5Z" fill="#E1322D"/>
<path d="M14 16.5H12.5V17.5H14C14.2761 17.5 14.5 17.2761 14.5 17C14.5 16.7239 14.2761 16.5 14 16.5Z" fill="#E1322D"/>
<path d="M12.75 25H19.75C19.8881 25 20 25.1119 20 25.25C20 25.3881 19.8881 25.5 19.75 25.5H12.75C12.6119 25.5 12.5 25.3881 12.5 25.25C12.5 25.1119 12.6119 25 12.75 25Z" fill="#F5826E"/>
<path d="M16.5 25.5C16.7761 25.5 17 25.2761 17 25C17 24.7239 16.7761 24.5 16.5 24.5C16.2239 24.5 16 24.7239 16 25C16 25.2761 16.2239 25.5 16.5 25.5Z" fill="#463C4B"/>
<path d="M21 18C19.8954 18 19 18.8954 19 20C19 20.2761 19.2239 20.5 19.5 20.5H22.5C22.7761 20.5 23 20.2761 23 20C23 18.8954 22.1046 18 21 18Z" fill="#463C4B"/>
<path d="M21 18C19.8954 18 19 18.8954 19 20H20C20.5523 20 21 19.5523 21 19V18Z" fill="#555A6E"/>
<path d="M26.5 16.5C26.5 15.3954 25.6046 14.5 24.5 14.5C24.2239 14.5 24 14.7239 24 15V18C24 18.2761 24.2239 18.5 24.5 18.5C25.6046 18.5 26.5 17.6046 26.5 16.5Z" fill="#463C4B"/>
<path d="M26.5 16.5C26.5 15.3954 25.6046 14.5 24.5 14.5V15.5C24.5 16.0523 24.9477 16.5 25.5 16.5H26.5Z" fill="#555A6E"/>
<path d="M5.5 16.5C5.5 15.3954 6.39544 14.5 7.5 14.5C7.77612 14.5 8 14.7239 8 15V18C8 18.2761 7.77612 18.5 7.5 18.5C6.39544 18.5 5.5 17.6046 5.5 16.5Z" fill="#463C4B"/>
<path d="M5.5 16.5C5.5 15.3954 6.39544 14.5 7.5 14.5V15.5C7.5 16.0523 7.05231 16.5 6.5 16.5H5.5Z" fill="#555A6E"/>
<path d="M11 14.5C9.89544 14.5 9 13.6046 9 12.5C9 12.2239 9.22387 12 9.5 12H12.5C12.7761 12 13 12.2239 13 12.5C13 13.6046 12.1046 14.5 11 14.5Z" fill="#463C4B"/>
<path d="M11 14.5C9.89544 14.5 9 13.6046 9 12.5H10C10.5523 12.5 11 12.9477 11 13.5V14.5Z" fill="#555A6E"/>
</svg>
