<svg width="10" height="10" viewBox="0 0 10 10" fill="none" xmlns="http://www.w3.org/2000/svg">
<path fill-rule="evenodd" clip-rule="evenodd" d="M8.14645 1.14645C8.34171 1.34171 8.34171 1.65829 8.14645 1.85355L1.85355 8.14645C1.65829 8.34171 1.34171 8.34171 1.14645 8.14645C0.951184 7.95118 0.951184 7.6346 1.14645 7.43934L7.43934 1.14645C7.6346 0.951184 7.95118 0.951184 8.14645 1.14645ZM9.14645 5.14645C9.34171 5.34171 9.34171 5.65829 9.14645 5.85355L5.85355 9.14645C5.65829 9.34171 5.34171 9.34171 5.14645 9.14645C4.95118 8.95118 4.95118 8.6346 5.14645 8.43934L8.43934 5.14645C8.6346 4.95118 8.95119 4.95118 9.14645 5.14645Z" fill="#43495E"/>
</svg>
