<svg width="24" height="24" viewBox="0 0 24 24" fill="none" xmlns="http://www.w3.org/2000/svg">
<path d="M16.2427 17.6569C16.6332 18.0474 17.2664 18.0474 17.6569 17.6569C18.0474 17.2664 18.0474 16.6332 17.6569 16.2427L13.4143 12.0001L17.6569 7.75742C18.0474 7.3669 18.0474 6.73373 17.6569 6.34321C17.2664 5.95268 16.6332 5.95268 16.2427 6.34321L12.0001 10.5858L7.7574 6.34319C7.36688 5.95266 6.73371 5.95266 6.34319 6.34319C5.95266 6.73371 5.95266 7.36688 6.34319 7.7574L10.5858 12.0001L6.34319 16.2427C5.95266 16.6332 5.95266 17.2664 6.34319 17.6569C6.73371 18.0474 7.36688 18.0474 7.7574 17.6569L12.0001 13.4143L16.2427 17.6569Z" fill="white"/>
</svg>
